<svg width="87" height="56" viewBox="0 0 87 56" fill="none" xmlns="http://www.w3.org/2000/svg">
<path d="M63.7901 10.4052C63.1775 10.7882 62.189 9.27326 61.9649 10.0143C61.7409 10.7553 62.2835 13.7452 62.5635 14.4623C62.7026 14.8187 62.8993 15.1447 63.0358 15.5024C63.1723 15.8601 63.2456 16.2713 63.1249 16.636C62.9149 17.2706 62.2217 17.5288 61.8781 18.0866C61.4778 18.7362 61.6395 19.6112 61.8266 20.3709C61.9879 21.0256 62.1597 21.6863 62.4702 22.2708C62.7807 22.8552 63.2487 23.3641 63.8336 23.5575C64.5782 23.8037 65.3741 23.5111 66.092 23.1808C66.7822 22.8632 67.4649 22.5031 68.052 21.9893C68.639 21.4755 69.1288 20.7935 69.334 19.9945C69.5914 18.9921 69.3763 17.8952 68.9307 16.9783C68.485 16.0613 67.8258 15.2974 67.1493 14.5762C66.01 13.3616 64.7976 12.2318 63.5229 11.1971" fill="#1B1919"/>
<path d="M26.2765 24.1297C26.2765 24.1297 28.7562 22.512 29.424 24.012C30.0918 25.512 36.2613 43.4062 36.2613 43.4062L32.2857 44.2675L26.2765 24.1297L26.2765 24.1297Z" fill="#BC5318"/>
<path d="M44.73 31.2765C43.5576 30.88 42.7912 29.8855 43.0181 29.0553C43.245 28.2252 44.3792 27.8739 45.5519 28.2707C46.0223 28.4221 46.4533 28.6966 46.8088 29.0713L51.7569 30.8211L50.9695 33.3873L46.1751 31.3899C45.6922 31.481 45.1966 31.4421 44.73 31.2765H44.73Z" fill="#FFB6B6"/>
<path d="M61.8946 22.0879C61.8946 22.0879 64.9159 23.5222 64.4196 25.5759C63.9233 27.6296 58.4138 34.5 58.4138 34.5C58.4138 34.5 58.2731 36.3763 56.5623 35.9468C54.8515 35.5173 46.845 32.3658 46.845 32.3658L47.8908 28.8749L55.9083 31.687L59.3239 23.3186L61.8946 22.0879V22.0879Z" fill="#1B1919"/>
<path d="M20.8679 13.4403L20.9848 13.6255C20.549 13.9054 20.4848 14.6117 20.6891 15.1242C20.8935 15.6367 21.289 16.0165 21.6311 16.4282C21.9733 16.8399 22.2852 17.3498 22.2535 17.9096C22.2179 18.5392 21.7565 19.0577 21.6923 19.6848C21.5994 20.5977 22.3634 21.3988 22.3255 22.3169C22.2968 23.018 21.8123 23.5813 21.3316 24.036C20.9554 24.3926 20.5459 24.7509 20.292 25.2109C20.2224 25.3375 20.1643 25.4727 20.1217 25.6174C19.9321 26.2703 20.1109 26.9817 20.3516 27.613C20.5916 28.2444 20.8973 28.861 20.9724 29.5415C21.0467 30.2219 20.8161 31.0074 20.2533 31.2865C21.3741 31.1797 22.4679 30.7447 23.396 30.0376C23.4796 29.9738 23.5608 29.9084 23.6413 29.8412C24.9572 28.7387 25.8814 27.1462 26.7708 25.5941C26.8444 25.4667 26.9171 25.3383 26.9907 25.2109C27.188 24.8655 27.3862 24.521 27.5843 24.1756C28.1494 23.1885 28.7214 22.1868 29.0295 21.0689C29.3128 20.0379 29.3608 18.9483 29.4769 17.8777C29.5334 17.3532 29.6077 16.8304 29.6216 16.3024C29.6441 15.4902 29.5195 14.6746 29.2656 13.9123C29.0171 13.163 28.644 12.4645 28.1633 11.8702C27.671 11.2612 27.0688 10.766 26.4062 10.4094C25.7646 10.064 25.0664 9.84958 24.355 9.79015C24.1166 9.77035 23.879 9.7669 23.6413 9.77896C22.704 9.82202 21.7774 10.0856 20.8764 10.4094C20.2138 10.766 19.6116 11.2613 19.1193 11.8702C18.6386 12.4645 18.2656 13.163 18.0171 13.9123C18.8809 13.399 19.9073 13.2224 20.8679 13.4403Z" fill="#1B1919"/>
<path d="M62.5314 32.269H57.3026V40.3175H62.5314V32.269Z" fill="#1B1919"/>
<path d="M27.5856 22.8627L23.1412 20.9233L23.0286 22.8627L19.1324 23.5415L17.3024 32.7536L18.9582 38.4748L31.3329 38.8627L30.8972 36.9233C30.8972 36.9233 32.9016 34.4021 31.6815 30.3294L31.546 29.2929C31.1918 26.5828 29.7293 24.2082 27.5857 22.8627L27.5856 22.8627Z" fill="#BC5318"/>
<path d="M69.5467 23.0084L63.3593 22.3296L57.1719 30.1841C57.1719 30.1841 55.429 34.8386 59.1763 36.3902V40.2571L68.5881 40.5598L69.5467 23.0084Z" fill="#E6E6E6"/>
<path d="M64.4922 41.4326L67.2809 21.6509L72.4225 23.2994V42.896L64.4922 41.4326Z" fill="#1B1919"/>
<path d="M65.3201 20.3416C67.7747 20.3416 69.7645 18.1274 69.7645 15.3961C69.7645 12.6648 67.7747 10.4507 65.3201 10.4507C62.8655 10.4507 60.8756 12.6648 60.8756 15.3961C60.8756 18.1274 62.8655 20.3416 65.3201 20.3416Z" fill="#FFB6B6"/>
<path d="M25.112 20.836C27.2923 20.836 29.0597 18.8694 29.0597 16.4434C29.0597 14.0174 27.2923 12.0508 25.112 12.0508C22.9318 12.0508 21.1644 14.0174 21.1644 16.4434C21.1644 18.8694 22.9318 20.836 25.112 20.836Z" fill="#A0616A"/>
<path d="M70.3303 23.1415C69.293 24.788 68.7625 26.8225 68.8467 28.8311C67.6705 28.1972 66.8767 26.8577 66.6066 25.435C66.3364 24.0122 66.5425 22.5183 66.9766 21.1467C66.981 21.133 66.9854 21.1193 66.9897 21.1056C67.6489 19.0468 67.0364 16.7458 65.4443 15.4661C64.3703 14.6028 63.4389 13.5198 62.724 12.2784C62.3204 11.5776 61.9774 10.6984 62.2789 9.93668C62.5567 9.23474 63.2744 8.90667 63.9349 8.68715C65.443 8.1859 67.0454 7.90068 68.5933 8.21786C70.1412 8.53503 71.6314 9.52555 72.3629 11.0762C73.0945 12.6269 72.9029 14.7432 71.7154 15.8928C72.09 16.0276 72.3549 16.4693 72.3231 16.9058C72.2913 17.3423 71.9658 17.7308 71.5767 17.7966C71.8306 17.7866 71.9805 18.1587 71.8899 18.4228C71.7994 18.6869 71.5659 18.851 71.3432 18.9869C71.0259 19.1805 70.6742 19.383 70.6729 19.8901C70.6723 20.0935 70.7375 20.2908 70.8439 20.4561C71.1019 20.8565 71.5185 21.0369 71.9194 21.2062C71.0714 21.4841 70.3951 22.3276 70.2433 23.2967" fill="#1B1919"/>
<path d="M17.661 16.3024C17.6749 16.8304 17.7492 17.3532 17.8057 17.8777C17.9219 18.9483 17.9698 20.0379 18.2531 21.0689C18.5612 22.1868 19.1332 23.1885 19.6983 24.1756C19.8965 24.521 20.0946 24.8655 20.292 25.2109C20.3655 25.3383 20.4383 25.4667 20.5118 25.5941C21.4012 27.1462 22.3254 28.7387 23.6413 29.8412C23.7218 29.9084 23.8031 29.9738 23.8867 30.0376C24.8148 30.7447 25.9085 31.1797 27.0293 31.2865C26.4666 31.0074 26.2359 30.2219 26.3102 29.5415C26.3853 28.861 26.6911 28.2444 26.931 27.613C27.1717 26.9817 27.3506 26.2703 27.1609 25.6174C27.1183 25.4727 27.0603 25.3375 26.9906 25.2109C26.7367 24.7509 26.3273 24.3926 25.9511 24.036C25.4704 23.5813 24.9858 23.018 24.9572 22.3169C24.9193 21.3988 24.3921 21.7062 24.2992 20.7933C24.235 20.1662 23.4834 19.0974 23.4478 18.4677C23.4161 17.9079 23.7249 16.5539 24.067 16.1422C24.4092 15.7305 24.0949 14.5015 24.2992 13.989C24.5036 13.4765 26.7336 13.9054 26.2978 13.6255L26.4147 13.4403C27.3753 13.2224 28.4017 13.399 29.2656 13.9123C29.4536 14.0234 29.6332 14.1501 29.8035 14.293C30.2145 13.4576 29.7269 12.3973 29.0635 11.7953C28.4141 11.2044 27.6137 10.8633 26.8196 10.5627C26.6825 10.5111 26.5448 10.4594 26.4062 10.4094C25.5052 10.0856 24.5787 9.82202 23.6413 9.77896C23.4037 9.7669 23.166 9.77035 22.9276 9.79015C22.2163 9.84958 21.5181 10.064 20.8764 10.4094C20.2138 10.766 19.6116 11.2612 19.1193 11.8702C18.6386 12.4645 18.2655 13.163 18.0171 13.9123C17.7632 14.6746 17.6385 15.4902 17.661 16.3024H17.661Z" fill="#1B1919"/>
<path d="M63.6643 22.281C63.6643 22.281 55.9954 30.3295 58.1741 37.7961L58.4355 39.8325L55.6469 39.3476C55.6469 39.3476 57.5641 23.6386 59.4813 22.8628C61.3985 22.0871 62.3571 21.2144 62.9672 21.2144C63.5772 21.2144 63.6643 22.281 63.6643 22.281Z" fill="#1B1919"/>
<path d="M84.3216 55.3794H84.3115L3.40983 55.025C2.53232 55.0212 1.73826 54.5195 1.28568 53.6829C0.833097 52.8463 0.806248 51.8306 1.21394 50.9659L7.1119 38.4558C7.54337 37.5403 8.38858 36.9717 9.31758 36.9717H78.8187C79.7743 36.9717 80.6571 37.592 81.0678 38.5522L86.5703 51.4168C86.9406 52.2826 86.8861 53.2829 86.4246 54.0925C85.9649 54.8989 85.1792 55.3794 84.3216 55.3794Z" fill="white"/>
<path d="M84.3216 55.3794H84.3115L3.40983 55.025C2.53232 55.0212 1.73826 54.5195 1.28568 53.6829C0.833097 52.8463 0.806248 51.8306 1.21394 50.9659L7.1119 38.4558C7.54337 37.5403 8.38858 36.9717 9.31758 36.9717H78.8187C79.7743 36.9717 80.6571 37.592 81.0678 38.5522L86.5703 51.4168C86.9406 52.2826 86.8861 53.2829 86.4246 54.0925C85.9649 54.8989 85.1792 55.3794 84.3216 55.3794ZM9.31758 37.2626C8.48607 37.2626 7.72962 37.7716 7.34338 38.5908L1.44542 51.1011C1.08058 51.875 1.10458 52.784 1.50967 53.5328C1.91473 54.2816 2.62547 54.7307 3.41085 54.7341L84.3125 55.0885H84.3215C85.0892 55.0885 85.7923 54.6585 86.2038 53.9367C86.6169 53.212 86.6657 52.3167 86.3343 51.5418L80.8317 38.6772C80.4642 37.8179 79.674 37.2626 78.8187 37.2626H9.31758Z" fill="#3F3D56"/>
<path d="M25.6249 46.2808L38.784 40.9475L32.2044 38.0029L19.0889 41.8202L25.6249 46.2808Z" fill="#F2F2F2"/>
<path d="M45.6686 38.2324L44.1871 43.4688L61.5292 44.6324L60.0477 38.7173L45.6686 38.2324Z" fill="#F2F2F2"/>
<path d="M25.2264 39.1283C26.4457 39.2628 27.3717 40.0719 27.2946 40.9353C27.2175 41.7988 26.1667 42.3894 24.947 42.2546C24.4591 42.2082 23.9883 42.0325 23.5739 41.7421L18.4141 41.0995L18.7368 38.4116L23.7892 39.3305C24.2469 39.1364 24.7397 39.067 25.2264 39.1283Z" fill="#A0616A"/>
<path d="M20.0475 24.0748L19.1325 23.5415C19.1325 23.5415 17.6945 23.59 16.7359 24.6567C15.7773 25.7233 8.02129 37.9415 8.02129 37.9415C8.02129 37.9415 6.10407 41.2384 10.8971 41.7233C15.6902 42.2081 21.0061 42.2081 21.0061 42.2081L21.4418 38.2324L14.2087 37.3596L19.2738 29.893L20.0475 24.0748Z" fill="#BC5318"/>
<path d="M58.325 41.2763C57.1014 41.3472 56.0766 40.7022 56.0362 39.8357C55.9958 38.9691 56.9549 38.2095 58.1789 38.1387C58.6676 38.103 59.1568 38.198 59.6056 38.4157L64.7936 38.1881L64.8378 40.8994L59.7186 40.8359C59.2924 41.1045 58.8145 41.2555 58.325 41.2763Z" fill="#FFB6B6"/>
<path d="M68.6577 22.7656C68.6577 22.7656 71.8125 21.7475 72.5968 23.6869C73.3811 25.6262 77.8256 39.9777 77.8256 39.9777C77.8256 39.9777 78.7842 41.5292 77.2155 42.402C75.6469 43.2747 63.0107 41.1414 63.0107 41.1414L63.4207 38.0868L72.3353 37.1656L67.368 25.5293L68.6577 22.7656Z" fill="#1B1919"/>
<path d="M47.2399 22.7831C46.3606 23.073 45.4316 23.2369 44.4721 23.2524C44.4155 23.2544 44.3588 23.2554 44.3022 23.2554C43.4342 23.2554 42.5915 23.1361 41.7854 22.9111L41.8063 22.6813L42.2751 17.6496L42.3048 17.3276L41.8699 15.876H47.205L47.1196 17.2947L47.0882 17.8115L47.1344 17.9754L48.3109 22.147L48.3632 22.3332C47.9989 22.5068 47.6242 22.657 47.2399 22.7831Z" fill="#BC5318"/>
<path d="M41.7854 22.911C40.5191 22.559 39.3444 21.9462 38.31 21.1287C37.8838 20.8717 37.4699 20.5935 37.0734 20.2987L37.2694 20.1891L42.1958 17.4478L42.2751 17.6495L44.3963 23.0604L44.4721 23.2524C44.4155 23.2543 44.3588 23.2553 44.3022 23.2553C43.4342 23.2553 42.5915 23.136 41.7854 22.911H41.7854Z" fill="#1B1919"/>
<path d="M52.5183 18.7493C52.4965 18.7823 52.4739 18.8143 52.4512 18.8463C52.0835 19.366 51.6756 19.849 51.2347 20.2902L51.2312 20.0313L51.219 19.0781C51.219 19.0781 51.571 18.792 52.0059 18.7173C52.1096 18.6989 52.2185 18.6931 52.3283 18.7067C52.392 18.7134 52.4547 18.727 52.5183 18.7493Z" fill="#1B1919"/>
<path d="M51.2347 20.2903C50.3911 21.1368 49.422 21.8311 48.3632 22.3335C47.9989 22.507 47.6242 22.6573 47.2399 22.7834L47.2355 22.5826L47.1344 17.9756L47.1196 17.2949L52.0059 18.7175L52.2656 18.7931L52.4512 18.8464C52.0835 19.3662 51.6756 19.8491 51.2347 20.2903V20.2903Z" fill="#1B1919"/>
<path d="M44.5877 14.3031C46.7492 14.3031 48.5015 12.3533 48.5015 9.94816C48.5015 7.54302 46.7492 5.59326 44.5877 5.59326C42.4262 5.59326 40.674 7.54302 40.674 9.94816C40.674 12.3533 42.4262 14.3031 44.5877 14.3031Z" fill="#A0616A"/>
<path d="M44.3021 0.176758C38.5845 0.176758 33.9317 5.35297 33.9317 11.7161C33.9317 11.7859 33.9326 11.8558 33.9343 11.9256C33.9884 11.8548 34.0459 11.785 34.106 11.7161C36.9818 8.41916 38.6803 0.370697 44.3021 0.370697C49.9248 0.370697 54.4983 5.45965 54.4983 11.7161C54.4983 14.3508 53.6869 16.7789 52.3283 18.7067C52.3074 18.7357 52.2874 18.7648 52.2656 18.7929C51.9484 19.2342 51.6024 19.6482 51.2312 20.0312C50.3797 20.9117 49.3932 21.6312 48.3109 22.1471C47.9623 22.3149 47.6032 22.4603 47.2355 22.5825C46.3344 22.8851 45.3819 23.0509 44.3963 23.0606C44.3649 23.0615 44.3335 23.0615 44.3021 23.0615C43.5126 23.0615 42.6664 22.9267 41.8063 22.6814C40.6315 22.3469 39.4298 21.8077 38.31 21.1289C39.3444 21.9464 40.5191 22.5592 41.7853 22.9112C42.5914 23.1362 43.4342 23.2555 44.3021 23.2555C44.3588 23.2555 44.4154 23.2545 44.4721 23.2526C45.4316 23.237 46.3605 23.0732 47.2398 22.7832C47.6242 22.6572 47.9989 22.5069 48.3632 22.3333C49.422 21.831 50.3911 21.1367 51.2346 20.2901C51.6756 19.8489 52.0834 19.366 52.4512 18.8463C52.4739 18.8143 52.4965 18.7823 52.5183 18.7493C53.8691 16.8012 54.6726 14.3614 54.6726 11.7161C54.6726 5.35297 50.0207 0.176758 44.3021 0.176758V0.176758ZM37.2694 20.1893C35.2607 18.1238 33.9857 15.1876 33.9343 11.9256C31.8838 14.567 33.9213 17.9571 37.0733 20.2989C37.4699 20.5937 37.8838 20.872 38.31 21.1289C37.9448 20.8409 37.5971 20.5267 37.2694 20.1893ZM47.2355 22.5825C46.3344 22.8851 45.3819 23.0509 44.3963 23.0606L44.4721 23.2526C45.4316 23.237 46.3605 23.0732 47.2398 22.7832L47.2355 22.5825Z" fill="#E6E6E6"/>
<path d="M41.0824 12.2648C40.3781 11.5255 39.8871 10.5456 40.3785 8.45672C40.4151 8.3012 40.317 8.13426 40.2223 8.01285C40.1276 7.89143 39.949 7.83501 39.8367 7.93604C39.9167 7.67379 41.0134 6.73709 41.0934 6.47485C40.9999 6.61282 40.2869 6.90862 40.2297 6.74797C40.1725 6.58732 40.2227 6.4068 40.2729 6.2433L40.5722 5.26868C40.6475 5.02354 40.9445 5.31643 41.0934 5.11728C41.3602 4.76049 41.0557 4.3844 41.463 4.28437C42.7961 3.957 44.2092 3.66451 45.5042 4.14503C46.0699 4.35492 46.5843 4.70362 47.0932 5.04943L48.0244 5.6822C48.5586 6.04519 49.1388 6.47581 49.2852 7.15299L48.3074 6.76415C48.5252 7.28018 48.7449 7.8026 48.8445 8.36182C48.9441 8.92104 48.6747 11.0267 48.4137 11.5173C48.1844 11.9482 48.0221 10.7908 47.9467 11.2845C48.033 10.3146 47.6406 9.30846 46.945 8.7161C46.8023 8.59461 46.6396 8.47776 46.5762 8.29074C46.5054 8.08216 46.5764 7.83134 46.4798 7.63603C46.3596 7.39319 46.0459 7.37005 45.8119 7.46536C45.578 7.56067 45.3735 7.73981 45.1312 7.80401C44.4887 7.97422 43.9042 7.29828 43.2453 7.24745C42.6177 7.19903 42.0563 7.74573 41.7953 8.38273C41.5343 9.01973 40.8123 8.88184 40.7448 9.57787C40.6773 10.2739 41.6629 11.6514 41.2677 12.196" fill="#1B1919"/>
<path d="M38.7679 16.9922C38.7321 16.9409 38.6657 16.9317 38.6195 16.9715C38.6161 16.9746 38.6128 16.9778 38.6096 16.9813L38.4484 17.1609C38.373 17.2449 38.3453 17.3638 38.3782 17.468C38.5148 17.8997 38.7369 18.2916 39.0282 18.6147C39.3186 18.9388 39.6708 19.186 40.0587 19.338C40.1525 19.3746 40.2593 19.3437 40.3348 19.2599L40.496 19.0805C40.5373 19.0346 40.5374 18.9601 40.4961 18.9141C40.493 18.9106 40.4897 18.9074 40.4862 18.9044L40.1264 18.593C40.1008 18.5709 40.0674 18.5631 40.036 18.5719L39.6944 18.6668C39.6017 18.6926 39.5036 18.6623 39.436 18.5871L39.053 18.1608C38.9854 18.0856 38.9581 17.9765 38.9813 17.8732L39.0667 17.4932C39.0746 17.4582 39.0676 17.4211 39.0477 17.3926L38.7679 16.9922ZM38.4919 16.8504C38.5981 16.7322 38.7705 16.7321 38.8767 16.8504C38.8848 16.8593 38.8923 16.8688 38.8992 16.8787L39.179 17.2789C39.2303 17.3523 39.2484 17.4479 39.2281 17.5381L39.1428 17.9182C39.1339 17.9582 39.1444 18.0006 39.1706 18.0298L39.5538 18.4561C39.58 18.4853 39.6182 18.4971 39.6542 18.487L39.9956 18.3921C40.0767 18.3695 40.1626 18.3897 40.2286 18.4468L40.5882 18.7581C40.7175 18.87 40.7293 19.0826 40.6136 19.2112L40.4524 19.3906C40.337 19.519 40.1645 19.5754 40.0037 19.5124C39.5922 19.3513 39.2185 19.0891 38.9105 18.7454C38.6016 18.4027 38.366 17.987 38.2212 17.5291C38.1647 17.3504 38.2154 17.1583 38.3308 17.0299L38.492 16.8504H38.4919H38.4919Z" fill="#CCCCCC"/>
<path d="M43.9903 17.8818C44.0333 17.8818 44.0682 17.9207 44.0682 17.9686V18.1421C44.0682 18.5255 44.3475 18.8363 44.6921 18.8363C45.0366 18.8363 45.3159 18.5255 45.3159 18.1421V17.9686C45.3159 17.9207 45.3508 17.8818 45.3938 17.8818C45.4369 17.8818 45.4718 17.9207 45.4718 17.9686V18.1421C45.4718 18.5877 45.1685 18.9609 44.77 19.0055V19.3569H45.2379C45.281 19.3569 45.3159 19.3957 45.3159 19.4436C45.3159 19.4915 45.281 19.5304 45.2379 19.5304H44.1462C44.1032 19.5304 44.0682 19.4915 44.0682 19.4436C44.0682 19.3957 44.1032 19.3569 44.1462 19.3569H44.6141V19.0055C44.2156 18.9609 43.9123 18.5877 43.9123 18.1421V17.9686C43.9123 17.9207 43.9472 17.8818 43.9903 17.8818Z" fill="#CCCCCC"/>
<path d="M45.004 18.1422C45.004 18.3338 44.8643 18.4892 44.6921 18.4892C44.5198 18.4892 44.3802 18.3338 44.3802 18.1422V17.2745C44.3802 17.0828 44.5198 16.9274 44.6921 16.9274C44.8643 16.9274 45.004 17.0828 45.004 17.2745V18.1422ZM44.6921 16.7539C44.4337 16.7539 44.2242 16.987 44.2242 17.2745V18.1422C44.2242 18.4297 44.4337 18.6628 44.6921 18.6628C44.9505 18.6628 45.1599 18.4297 45.1599 18.1422V17.2745C45.1599 16.987 44.9505 16.7539 44.6921 16.7539Z" fill="#CCCCCC"/>
<path d="M50.7182 18.1482C50.7182 18.246 50.7035 18.3403 50.6767 18.4281L50.5498 18.2868C50.5581 18.2412 50.5622 18.1947 50.5622 18.1482V17.9746C50.5622 17.9267 50.5971 17.8879 50.6402 17.8879C50.6833 17.8879 50.7182 17.9267 50.7182 17.9746V18.1482ZM49.9384 18.8423C50.066 18.8423 50.1845 18.7998 50.2834 18.7265L50.3954 18.8513C50.284 18.9411 50.1532 18.9964 50.0164 19.0115V19.3629H50.4843C50.5273 19.3629 50.5622 19.4017 50.5622 19.4496C50.5622 19.4976 50.5273 19.5364 50.4843 19.5364H49.3926C49.3495 19.5364 49.3146 19.4976 49.3146 19.4496C49.3146 19.4017 49.3495 19.3629 49.3926 19.3629H49.8604V19.0115C49.462 18.9669 49.1587 18.5938 49.1587 18.1482V17.9746C49.1587 17.9267 49.1936 17.8879 49.2366 17.8879C49.2797 17.8879 49.3146 17.9267 49.3146 17.9746V18.1482C49.3146 18.5315 49.5939 18.8423 49.9384 18.8423V18.8423ZM50.4063 17.2805V18.1272L50.2503 17.9536V17.2805C50.2511 17.0888 50.1121 16.9328 49.9398 16.9319C49.7736 16.9311 49.6361 17.0754 49.627 17.26L49.4952 17.1134C49.5785 16.8411 49.8443 16.6955 50.089 16.7882C50.2785 16.8599 50.406 17.0578 50.4063 17.2805V17.2805Z" fill="#CCCCCC"/>
<path d="M50.1701 18.6006L50.0535 18.4708C49.8934 18.5415 49.7121 18.4545 49.6485 18.2763C49.634 18.2355 49.6265 18.1921 49.6265 18.1482V17.9959L49.4705 17.8223V18.1482C49.4705 18.4357 49.6799 18.6689 49.9383 18.669C50.0196 18.669 50.0995 18.6454 50.1701 18.6006ZM48.9475 16.9949L50.8189 19.0773L50.9293 18.9544L49.0579 16.8721L48.9475 16.9949Z" fill="#CCCCCC"/>
</svg>
